<svg xmlns="http://www.w3.org/2000/svg" xmlns:xlink="http://www.w3.org/1999/xlink">
  <!--<circle r="25%" cx="50%" cy="50%" fill="none" stroke="#e60" stroke-width="25" />-->
  <!--<rect x="10%" y="50%" width="80%" height="10%" fill="cyan" stroke="#000" stroke-width="20" />-->
  <!--<ellipse cx="50%" cy="50%" rx="5%" ry="45%" fill="yellow" fill-opacity="0.4" stroke="purple" stroke-width="20" />-->
  <!--<line x2="300" y2="100" stroke="green" stroke-width="10" stroke-linecap="round" />-->
  <!--<rect x="50" y="50" width="300" height="170" rx="90" ry="50" stroke="darkseagreen" stroke-width="10" fill="lightgray" fill-opacity="0.6" />-->
  <!--<circle cx="150" cy="150" r="100" stroke="darkseagreen" stroke-width="10" fill="grey" fill-opacity="0.6" />-->
  <!--<ellipse cx="110" cy="55" rx="70" ry="35" stroke="darkseagreen" stroke-width="0.8" fill="lightgray" fill-opacity="0.6" />-->
  <!--<polyline points="200,60 240,230 310,230 350,60" fill="lightcyan" fill-opacity="0.7" stroke="darkviolet" stroke-width="25" stroke-linecap="round" stroke-opacity="0.2" />-->

  <!--<polygon points="100,50 115,120 150,150 115,180 100,250 85,180 50,150 85,120" fill="darkorange" fill-opacity="0.5" stroke="papayawhip" stroke-width="20" stroke-opacity="0.7" stroke-linejoin="miter"/>-->

  <!--<circle xmlns="http://www.w3.org/2000/svg" cx="40" cy="40" r="20" stroke="darkslategray" stroke-width="20" stroke-opacity="0.5" fill="lightslategray" fill-opacity="0.5"/>-->
  <path stroke="black" d="M 50 50 L 150 150"/>
  <path d="M 150 50 L 250 150 350 100" fill="none" stroke="darkslategray" />

  <path d="M 70,290 L 150,150 200,250 40,250 100,150 170,290" />
  <path fill-rule="evenodd" d="M 70 140 L 150,0 200,100 L 40,100 100,0 L 170,140 70 140"/>
  <path fill="red" fill-rule="evenodd" d="M 70 140 Q 150,0 200,100 Q 40,100 100,0 Q 170,140 70 140"/>
  <path d="M 70,290 L 150,150 200,250 40,250 100,150 170,290" fill-rule="evenodd" transform="translate(250,0)" />

  <path d="M 100,350 300,100 500,350 z" fill="none" stroke="black" stroke-width="20" transform="translate(500,0)" />
  <path d="M 250,320 250,220 350,220 350,320 z" fill="none" stroke="black" stroke-width="20" transform="translate(500,0)" />

  <path d="M 100 200 Q 200,400 300,200" fill="none" stroke="blue" />
  <path d="M 100 200 L 200,400 300,200" fill="none" stroke="red"/>

  <path id="H" fill="#bbb" fill-rule="evenodd" d="M 70 140 L 150,0 200,100 L 40,100 100,0 L 170,140 70 140"/>
  <path id="X" fill="#b42" fill-rule="evenodd" d="M 70 140 Q 150,0 200,100 Q 40,100 100,0 Q 170,140 70 140"/>

  <path fill="#c53" fill-rule="evenodd" opacity=".5" d="M 70 140 C 17.5 ,140 150,0 200,100 C 220, 140 40,100 100,0 C 127,-47 170,140 70 140"/>

  <path stroke="darkslategray" stroke-width="6" fill="none"
  stroke-linecap="round"
  d="M50,100
  A100,50 0 0 1 250,100
  A80,40 0 0 1 90,100
  A60,30 0 0 1 210,100
  A40,20 0 0 1 130,100
  A20,10 0 0 1 170,100" />

  <defs>
    <pattern id="Pattern01" width="10" height="10" patternUnits="userSpaceOnUse">
      <rect width="10" height="10" fill="#FFFFFF" stroke="#000000" stroke-width="0.1"/>
    </pattern>
  </defs>

  <rect id="Background" x="0" y="0" width="100%" height="100%" fill="url(#Pattern01)" stroke-width="0.5" stroke="#000000" />
</svg>
